<?xml version="1.0" encoding="utf-8"?>
<!-- Generator: Adobe Illustrator 19.0.0, SVG Export Plug-In . SVG Version: 6.00 Build 0)  -->
<svg version="1.1" xmlns="http://www.w3.org/2000/svg" xmlns:xlink="http://www.w3.org/1999/xlink" x="0px" y="0px"
	 viewBox="0 0 640 112" style="enable-background:new 0 0 640 112;" xml:space="preserve">
<style type="text/css">
	.st0{display:none;}
	.st1{display:inline;fill:#F4F4F4;}
	.st2{fill:none;}
	.st3{font-family:'MyriadPro-Regular';}
	.st4{font-size:56px;}
	.st5{opacity:0.64;}
	.st6{fill:url(#SVGID_1_);}
	.st7{fill:url(#SVGID_2_);}
	.st8{fill:url(#SVGID_3_);}
	.st9{fill:url(#SVGID_4_);}
	.st10{fill:url(#SVGID_5_);}
	.st11{fill:url(#SVGID_6_);}
	.st12{fill:url(#SVGID_7_);}
	.st13{fill:url(#SVGID_8_);}
	.st14{fill:url(#SVGID_9_);}
	.st15{fill:url(#SVGID_10_);}
	.st16{fill:url(#SVGID_11_);}
	.st17{fill:url(#SVGID_12_);}
	.st18{fill:url(#SVGID_13_);}
	.st19{fill:url(#SVGID_14_);}
	.st20{fill:url(#SVGID_15_);}
	.st21{fill:url(#SVGID_16_);}
	.st22{fill:url(#SVGID_17_);}
	.st23{fill:url(#SVGID_18_);}
	.st24{fill:url(#SVGID_19_);}
	.st25{fill:url(#SVGID_20_);}
	.st26{fill:url(#SVGID_21_);}
	.st27{fill:url(#SVGID_22_);}
	.st28{fill:url(#SVGID_23_);}
</style>
<g id="Background" class="st0">
	<rect x="-61" y="-529" class="st1" width="800" height="800"/>
</g>
<g id="Objects">
	<g>
		<rect x="36.6" y="36.1" class="st2" width="642" height="124.5"/>
		<text transform="matrix(1 0 0 1 36.606 75.8418)"><tspan x="0" y="0" class="st2 st3 st4">Nxt</tspan><tspan x="81.3" y="0" class="st5 st3 st4">     </tspan><tspan x="140.7" y="0" class="st3 st4">   </tspan><tspan x="176.3" y="0" class="st2 st3 st4">Technologies Ltd.</tspan></text>
		<g>
			<linearGradient id="SVGID_1_" gradientUnits="userSpaceOnUse" x1="40.8618" y1="61.814" x2="623.3633" y2="61.814">
				<stop  offset="0" style="stop-color:#2B3990"/>
				<stop  offset="1" style="stop-color:#27AAE1"/>
			</linearGradient>
			<path class="st6" d="M40.9,75.8V38.1h5.3l12.1,19.1c2.8,4.4,5,8.4,6.8,12.3l0.1-0.1c-0.4-5-0.6-9.6-0.6-15.5V38.1h4.6v37.7h-4.9
				l-12-19.2c-2.6-4.2-5.2-8.5-7.1-12.6l-0.2,0.1c0.3,4.8,0.4,9.3,0.4,15.6v16.1H40.9z"/>
			<linearGradient id="SVGID_2_" gradientUnits="userSpaceOnUse" x1="40.8618" y1="61.814" x2="623.3633" y2="61.814">
				<stop  offset="0" style="stop-color:#2B3990"/>
				<stop  offset="1" style="stop-color:#27AAE1"/>
			</linearGradient>
			<path class="st7" d="M79.8,48.7l3.9,5.8c1,1.5,1.8,2.9,2.7,4.4h0.2c0.9-1.6,1.8-3,2.7-4.5l3.8-5.8h5.3l-9.2,13.1l9.5,14h-5.6
				l-4-6.1c-1.1-1.6-2-3.1-2.9-4.7h-0.1c-0.9,1.6-1.8,3.1-2.9,4.7l-3.9,6.1h-5.4L83.5,62l-9.2-13.3H79.8z"/>
			<linearGradient id="SVGID_3_" gradientUnits="userSpaceOnUse" x1="40.8618" y1="61.814" x2="623.3633" y2="61.814">
				<stop  offset="0" style="stop-color:#2B3990"/>
				<stop  offset="1" style="stop-color:#27AAE1"/>
			</linearGradient>
			<path class="st8" d="M109.4,41v7.8h7.1v3.8h-7.1v14.6c0,3.4,1,5.3,3.7,5.3c1.3,0,2.2-0.2,2.9-0.3l0.2,3.7c-1,0.4-2.5,0.7-4.4,0.7
				c-2.3,0-4.1-0.7-5.3-2.1c-1.4-1.5-1.9-3.9-1.9-7.1V52.5h-4.2v-3.8h4.2v-6.5L109.4,41z"/>
			<linearGradient id="SVGID_4_" gradientUnits="userSpaceOnUse" x1="40.8618" y1="61.814" x2="623.3633" y2="61.814">
				<stop  offset="0" style="stop-color:#2B3990"/>
				<stop  offset="1" style="stop-color:#27AAE1"/>
			</linearGradient>
			<path class="st9" d="M224.3,42.2h-11.5v-4.1h27.9v4.1h-11.5v33.6h-4.9V42.2z"/>
			<linearGradient id="SVGID_5_" gradientUnits="userSpaceOnUse" x1="40.8618" y1="61.814" x2="623.3633" y2="61.814">
				<stop  offset="0" style="stop-color:#2B3990"/>
				<stop  offset="1" style="stop-color:#27AAE1"/>
			</linearGradient>
			<path class="st10" d="M247.6,63.2c0.1,6.7,4.4,9.4,9.3,9.4c3.5,0,5.7-0.6,7.5-1.4l0.8,3.5c-1.7,0.8-4.7,1.7-9,1.7
				c-8.3,0-13.3-5.5-13.3-13.7c0-8.2,4.8-14.6,12.7-14.6c8.8,0,11.2,7.8,11.2,12.8c0,1-0.1,1.8-0.2,2.3H247.6z M262,59.7
				c0.1-3.1-1.3-8-6.8-8c-5,0-7.2,4.6-7.6,8H262z"/>
			<linearGradient id="SVGID_6_" gradientUnits="userSpaceOnUse" x1="40.8618" y1="61.814" x2="623.3633" y2="61.814">
				<stop  offset="0" style="stop-color:#2B3990"/>
				<stop  offset="1" style="stop-color:#27AAE1"/>
			</linearGradient>
			<path class="st11" d="M292.2,74.8c-1.3,0.7-4.1,1.6-7.8,1.6c-8.2,0-13.5-5.5-13.5-13.8c0-8.3,5.7-14.4,14.6-14.4
				c2.9,0,5.5,0.7,6.8,1.4l-1.1,3.8c-1.2-0.7-3-1.3-5.7-1.3c-6.2,0-9.6,4.6-9.6,10.2c0,6.3,4,10.1,9.4,10.1c2.8,0,4.6-0.7,6-1.3
				L292.2,74.8z"/>
			<linearGradient id="SVGID_7_" gradientUnits="userSpaceOnUse" x1="40.8618" y1="61.814" x2="623.3633" y2="61.814">
				<stop  offset="0" style="stop-color:#2B3990"/>
				<stop  offset="1" style="stop-color:#27AAE1"/>
			</linearGradient>
			<path class="st12" d="M298,36.1h4.9V53h0.1c0.8-1.4,2-2.6,3.5-3.5c1.5-0.8,3.2-1.4,5-1.4c3.6,0,9.5,2.2,9.5,11.6v16.1h-4.9V60.3
				c0-4.4-1.6-8.1-6.3-8.1c-3.2,0-5.7,2.2-6.6,4.9c-0.3,0.7-0.3,1.4-0.3,2.4v16.4H298V36.1z"/>
			<linearGradient id="SVGID_8_" gradientUnits="userSpaceOnUse" x1="40.8618" y1="61.814" x2="623.3633" y2="61.814">
				<stop  offset="0" style="stop-color:#2B3990"/>
				<stop  offset="1" style="stop-color:#27AAE1"/>
			</linearGradient>
			<path class="st13" d="M329,56.1c0-2.8-0.1-5.1-0.2-7.3h4.4l0.3,4.5h0.1c1.3-2.6,4.5-5.1,9-5.1c3.8,0,9.6,2.2,9.6,11.5v16.2h-4.9
				V60.2c0-4.4-1.6-8-6.3-8c-3.2,0-5.8,2.3-6.6,5c-0.2,0.6-0.3,1.5-0.3,2.3v16.3H329V56.1z"/>
			<linearGradient id="SVGID_9_" gradientUnits="userSpaceOnUse" x1="40.8618" y1="61.814" x2="623.3633" y2="61.814">
				<stop  offset="0" style="stop-color:#2B3990"/>
				<stop  offset="1" style="stop-color:#27AAE1"/>
			</linearGradient>
			<path class="st14" d="M384.6,62.1c0,10-6.9,14.4-13.5,14.4c-7.3,0-13-5.4-13-13.9c0-9.1,5.9-14.4,13.4-14.4
				C379.4,48.1,384.6,53.8,384.6,62.1z M363.1,62.3c0,5.9,3.4,10.4,8.2,10.4c4.7,0,8.2-4.4,8.2-10.5c0-4.6-2.3-10.4-8.1-10.4
				S363.1,57.2,363.1,62.3z"/>
			<linearGradient id="SVGID_10_" gradientUnits="userSpaceOnUse" x1="40.8618" y1="61.814" x2="623.3633" y2="61.814">
				<stop  offset="0" style="stop-color:#2B3990"/>
				<stop  offset="1" style="stop-color:#27AAE1"/>
			</linearGradient>
			<path class="st15" d="M390.9,36.1h4.9v39.8h-4.9V36.1z"/>
			<linearGradient id="SVGID_11_" gradientUnits="userSpaceOnUse" x1="40.8618" y1="61.814" x2="623.3633" y2="61.814">
				<stop  offset="0" style="stop-color:#2B3990"/>
				<stop  offset="1" style="stop-color:#27AAE1"/>
			</linearGradient>
			<path class="st16" d="M428.6,62.1c0,10-6.9,14.4-13.5,14.4c-7.3,0-13-5.4-13-13.9c0-9.1,5.9-14.4,13.4-14.4
				C423.3,48.1,428.6,53.8,428.6,62.1z M407.1,62.3c0,5.9,3.4,10.4,8.2,10.4c4.7,0,8.2-4.4,8.2-10.5c0-4.6-2.3-10.4-8.1-10.4
				S407.1,57.2,407.1,62.3z"/>
			<linearGradient id="SVGID_12_" gradientUnits="userSpaceOnUse" x1="40.8618" y1="61.814" x2="623.3633" y2="61.814">
				<stop  offset="0" style="stop-color:#2B3990"/>
				<stop  offset="1" style="stop-color:#27AAE1"/>
			</linearGradient>
			<path class="st17" d="M458.2,48.7c-0.1,2-0.2,4.1-0.2,7.4v15.7c0,6.2-1.2,10-3.9,12.4c-2.6,2.5-6.4,3.2-9.9,3.2
				c-3.2,0-6.8-0.8-9-2.2l1.2-3.8c1.8,1.1,4.6,2.1,8,2.1c5,0,8.7-2.6,8.7-9.5v-3H453c-1.5,2.5-4.4,4.5-8.6,4.5
				c-6.7,0-11.5-5.7-11.5-13.2c0-9.2,6-14.4,12.2-14.4c4.7,0,7.3,2.5,8.5,4.7h0.1l0.2-4.1H458.2z M453.1,59.4c0-0.8-0.1-1.6-0.3-2.2
				c-0.9-2.9-3.3-5.2-6.9-5.2c-4.7,0-8.1,4-8.1,10.2c0,5.3,2.7,9.7,8,9.7c3,0,5.8-1.9,6.8-5c0.3-0.8,0.4-1.8,0.4-2.6V59.4z"/>
			<linearGradient id="SVGID_13_" gradientUnits="userSpaceOnUse" x1="40.8618" y1="61.814" x2="623.3633" y2="61.814">
				<stop  offset="0" style="stop-color:#2B3990"/>
				<stop  offset="1" style="stop-color:#27AAE1"/>
			</linearGradient>
			<path class="st18" d="M471.6,41.1c0.1,1.7-1.2,3-3.1,3c-1.7,0-3-1.3-3-3c0-1.7,1.3-3.1,3.1-3.1C470.4,38,471.6,39.4,471.6,41.1z
				 M466.1,75.8V48.7h4.9v27.1H466.1z"/>
			<linearGradient id="SVGID_14_" gradientUnits="userSpaceOnUse" x1="40.8618" y1="61.814" x2="623.3633" y2="61.814">
				<stop  offset="0" style="stop-color:#2B3990"/>
				<stop  offset="1" style="stop-color:#27AAE1"/>
			</linearGradient>
			<path class="st19" d="M482,63.2c0.1,6.7,4.4,9.4,9.3,9.4c3.5,0,5.7-0.6,7.5-1.4l0.8,3.5c-1.7,0.8-4.7,1.7-9,1.7
				c-8.3,0-13.3-5.5-13.3-13.7c0-8.2,4.8-14.6,12.7-14.6c8.8,0,11.2,7.8,11.2,12.8c0,1-0.1,1.8-0.2,2.3H482z M496.4,59.7
				c0.1-3.1-1.3-8-6.8-8c-5,0-7.2,4.6-7.6,8H496.4z"/>
			<linearGradient id="SVGID_15_" gradientUnits="userSpaceOnUse" x1="40.8618" y1="61.814" x2="623.3633" y2="61.814">
				<stop  offset="0" style="stop-color:#2B3990"/>
				<stop  offset="1" style="stop-color:#27AAE1"/>
			</linearGradient>
			<path class="st20" d="M506.6,70.8c1.5,1,4,2,6.5,2c3.6,0,5.3-1.8,5.3-4c0-2.4-1.4-3.6-5-5c-4.9-1.7-7.2-4.4-7.2-7.7
				c0-4.4,3.5-8,9.4-8c2.7,0,5.2,0.8,6.7,1.7l-1.2,3.6c-1.1-0.7-3-1.6-5.5-1.6c-2.9,0-4.5,1.7-4.5,3.7c0,2.2,1.6,3.2,5.2,4.6
				c4.7,1.8,7.1,4.1,7.1,8.2c0,4.8-3.7,8.1-10.1,8.1c-3,0-5.7-0.7-7.6-1.8L506.6,70.8z"/>
			<linearGradient id="SVGID_16_" gradientUnits="userSpaceOnUse" x1="40.8618" y1="61.814" x2="623.3633" y2="61.814">
				<stop  offset="0" style="stop-color:#2B3990"/>
				<stop  offset="1" style="stop-color:#27AAE1"/>
			</linearGradient>
			<path class="st21" d="M541.5,38.1h4.9v33.7h16.1v4.1h-21V38.1z"/>
			<linearGradient id="SVGID_17_" gradientUnits="userSpaceOnUse" x1="40.8618" y1="61.814" x2="623.3633" y2="61.814">
				<stop  offset="0" style="stop-color:#2B3990"/>
				<stop  offset="1" style="stop-color:#27AAE1"/>
			</linearGradient>
			<path class="st22" d="M573.7,41v7.8h7.1v3.8h-7.1v14.6c0,3.4,1,5.3,3.7,5.3c1.3,0,2.2-0.2,2.9-0.3l0.2,3.7
				c-1,0.4-2.5,0.7-4.4,0.7c-2.3,0-4.1-0.7-5.3-2.1c-1.4-1.5-1.9-3.9-1.9-7.1V52.5h-4.2v-3.8h4.2v-6.5L573.7,41z"/>
			<linearGradient id="SVGID_18_" gradientUnits="userSpaceOnUse" x1="40.8618" y1="61.814" x2="623.3633" y2="61.814">
				<stop  offset="0" style="stop-color:#2B3990"/>
				<stop  offset="1" style="stop-color:#27AAE1"/>
			</linearGradient>
			<path class="st23" d="M609.7,36.1v32.8c0,2.4,0.1,5.2,0.2,7h-4.4l-0.2-4.7h-0.1c-1.5,3-4.8,5.3-9.2,5.3
				c-6.6,0-11.6-5.5-11.6-13.8c-0.1-9,5.5-14.6,12.2-14.6c4.1,0,6.9,2,8.2,4.1h0.1V36.1H609.7z M604.8,59.8c0-0.6-0.1-1.5-0.2-2.1
				c-0.7-3.1-3.4-5.7-7.1-5.7c-5.1,0-8.1,4.5-8.1,10.5c0,5.5,2.7,10,8,10c3.3,0,6.3-2.2,7.2-5.9c0.2-0.7,0.2-1.3,0.2-2.1V59.8z"/>
			<linearGradient id="SVGID_19_" gradientUnits="userSpaceOnUse" x1="40.8618" y1="61.814" x2="623.3633" y2="61.814">
				<stop  offset="0" style="stop-color:#2B3990"/>
				<stop  offset="1" style="stop-color:#27AAE1"/>
			</linearGradient>
			<path class="st24" d="M616.7,72.9c0-2.1,1.4-3.5,3.4-3.5c2,0,3.3,1.5,3.3,3.5c0,2-1.3,3.5-3.4,3.5
				C618,76.5,616.7,74.9,616.7,72.9z"/>
		</g>
	</g>
	<g>
		<g>
			<linearGradient id="SVGID_20_" gradientUnits="userSpaceOnUse" x1="125.1279" y1="56.1836" x2="202.7983" y2="56.1836">
				<stop  offset="0" style="stop-color:#399F4A"/>
				<stop  offset="1" style="stop-color:#006838"/>
			</linearGradient>
			<path class="st25" d="M125.1,38.3h4.9V72h16.1v4.1h-21V38.3z"/>
			<linearGradient id="SVGID_21_" gradientUnits="userSpaceOnUse" x1="125.1279" y1="56.1836" x2="202.7983" y2="56.1836">
				<stop  offset="0" style="stop-color:#399F4A"/>
				<stop  offset="1" style="stop-color:#006838"/>
			</linearGradient>
			<path class="st26" d="M156.9,41.4c0.1,1.7-1.2,3-3.1,3c-1.7,0-3-1.3-3-3c0-1.7,1.3-3.1,3.1-3.1C155.7,38.3,156.9,39.6,156.9,41.4
				z M151.4,76.1V49h4.9v27.1H151.4z"/>
			<linearGradient id="SVGID_22_" gradientUnits="userSpaceOnUse" x1="125.1279" y1="56.1836" x2="202.7983" y2="56.1836">
				<stop  offset="0" style="stop-color:#399F4A"/>
				<stop  offset="1" style="stop-color:#006838"/>
			</linearGradient>
			<path class="st27" d="M165,76.1V52.7h-3.8V49h3.8v-1.3c0-3.8,0.8-7.3,3.1-9.5c1.8-1.8,4.3-2.5,6.6-2.5c1.7,0,3.2,0.4,4.2,0.8
				l-0.7,3.8c-0.7-0.3-1.7-0.6-3.1-0.6c-4.2,0-5.3,3.7-5.3,7.8V49h6.6v3.8h-6.6v23.4H165z"/>
			<linearGradient id="SVGID_23_" gradientUnits="userSpaceOnUse" x1="125.1279" y1="56.1836" x2="202.7983" y2="56.1836">
				<stop  offset="0" style="stop-color:#399F4A"/>
				<stop  offset="1" style="stop-color:#006838"/>
			</linearGradient>
			<path class="st28" d="M183.6,63.4c0.1,6.7,4.4,9.4,9.3,9.4c3.5,0,5.7-0.6,7.5-1.4l0.8,3.5c-1.7,0.8-4.7,1.7-9,1.7
				c-8.3,0-13.3-5.5-13.3-13.7c0-8.2,4.8-14.6,12.7-14.6c8.8,0,11.2,7.8,11.2,12.8c0,1-0.1,1.8-0.2,2.3H183.6z M198,59.9
				c0.1-3.1-1.3-8-6.8-8c-5,0-7.2,4.6-7.6,8H198z"/>
		</g>
	</g>
</g>
</svg>
